<svg width="96" height="105" viewBox="0 0 96 105" fill="none" xmlns="http://www.w3.org/2000/svg">
<path d="M66.096 50.2425C66.096 50.2425 65.928 41.8221 56.312 43.3096C55.7517 41.3912 54.6036 39.743 53.0613 38.6429C53.0613 38.6429 51.4613 37.3654 48.7387 37.3654C42.6053 37.3654 40.912 43.3213 40.912 43.3213C40.912 43.3213 32.5733 40.9879 30.2747 50.2542" fill="#DEDC00"/>
<path d="M48.7387 37.3538C42.6053 37.3538 40.912 43.3096 40.912 43.3096C40.912 43.3096 32.5733 40.9763 30.2747 50.2425" stroke="black" stroke-width="5.28" stroke-linecap="round" stroke-linejoin="round"/>
<path d="M66.096 50.2425C66.096 50.2425 65.928 41.8221 56.312 43.3096C55.7517 41.3912 54.6036 39.743 53.0613 38.6429" stroke="black" stroke-width="5.28" stroke-linecap="round" stroke-linejoin="round"/>
<path d="M69.84 43.7967C71.8871 43.7967 73.5466 41.9815 73.5466 39.7425C73.5466 37.5034 71.8871 35.6883 69.84 35.6883C67.7928 35.6883 66.1333 37.5034 66.1333 39.7425C66.1333 41.9815 67.7928 43.7967 69.84 43.7967Z" fill="#DEDC00" stroke="black" stroke-width="5.28" stroke-linecap="round" stroke-linejoin="round"/>
<path d="M38.8187 33.9267C40.773 33.9267 42.3574 32.1938 42.3574 30.0562C42.3574 27.9187 40.773 26.1858 38.8187 26.1858C36.8643 26.1858 35.28 27.9187 35.28 30.0562C35.28 32.1938 36.8643 33.9267 38.8187 33.9267Z" fill="#DEDC00" stroke="black" stroke-width="5.28" stroke-linecap="round" stroke-linejoin="round"/>
<path d="M27.68 42.0583C29.6771 42.0583 31.296 40.2876 31.296 38.1033C31.296 35.9191 29.6771 34.1483 27.68 34.1483C25.683 34.1483 24.064 35.9191 24.064 38.1033C24.064 40.2876 25.683 42.0583 27.68 42.0583Z" fill="#DEDC00" stroke="black" stroke-width="5.28" stroke-linecap="round" stroke-linejoin="round"/>
<path d="M20.2347 56.7904H75.7653V88.9117C75.7653 89.9946 75.372 91.0332 74.6719 91.799C73.9717 92.5648 73.0222 92.995 72.032 92.995H23.9787C22.9885 92.995 22.039 92.5648 21.3388 91.799C20.6387 91.0332 20.2453 89.9946 20.2453 88.9117V56.7904H20.2347Z" fill="#E30613" stroke="black" stroke-width="5.28" stroke-linecap="round" stroke-linejoin="round"/>
<path d="M75.7653 60.9933H82.264C83.054 60.9933 83.8116 61.3366 84.3702 61.9476C84.9288 62.5585 85.2427 63.3872 85.2427 64.2513C85.2427 65.1153 84.9288 65.944 84.3702 66.555C83.8116 67.1659 83.054 67.5092 82.264 67.5092H75.7653V60.9933Z" fill="#9D9D9C" stroke="black" stroke-width="5.28" stroke-linecap="round" stroke-linejoin="round"/>
<path d="M20.2347 67.5063H13.736C12.946 67.5063 12.1884 67.163 11.6298 66.552C11.0712 65.9411 10.7573 65.1124 10.7573 64.2483C10.7573 63.3843 11.0712 62.5556 11.6298 61.9446C12.1884 61.3337 12.946 60.9904 13.736 60.9904H20.2347V67.5063Z" fill="#9D9D9C" stroke="black" stroke-width="5.28" stroke-linecap="round" stroke-linejoin="round"/>
<path d="M27.701 12.3267L70.5983 23.3056C71.2943 23.4821 71.9516 23.8071 72.5326 24.2619C73.1136 24.7167 73.6068 25.2924 73.984 25.9561C74.3613 26.6197 74.6152 27.3582 74.7311 28.1293C74.847 28.9004 74.8227 29.6889 74.6596 30.4497L21.1711 16.7602C21.3333 16 21.631 15.2822 22.0471 14.6478C22.4632 14.0135 22.9895 13.475 23.596 13.0633C24.2024 12.6515 24.8771 12.3746 25.5815 12.2482C26.2858 12.1218 27.0061 12.1485 27.701 12.3267Z" fill="#E30613" stroke="black" stroke-width="5.28" stroke-linecap="round" stroke-linejoin="round"/>
<path d="M45.2326 12.042L55.0034 14.5426C55.4496 14.6568 55.8361 14.9602 56.0778 15.3861C56.3195 15.812 56.3966 16.3255 56.2922 16.8135L55.718 19.4973L42.5796 16.1347L43.1538 13.451C43.2055 13.2091 43.3004 12.9807 43.4329 12.7789C43.5654 12.5771 43.733 12.4059 43.9261 12.2751C44.1192 12.1442 44.334 12.0562 44.5582 12.0162C44.7823 11.9763 45.0115 11.985 45.2326 12.042Z" fill="#9D9D9C" stroke="black" stroke-width="5.28" stroke-linecap="round" stroke-linejoin="round"/>
<path d="M28.2667 56.7904H19.7813C18.9896 56.7873 18.2314 56.4412 17.6726 55.8278C17.1137 55.2144 16.8 54.3838 16.8 53.5179C16.8 52.6492 17.1155 51.8161 17.6771 51.2018C18.2387 50.5876 19.0004 50.2425 19.7947 50.2425H75.7653C76.1586 50.2425 76.548 50.3272 76.9113 50.4918C77.2747 50.6564 77.6048 50.8977 77.8829 51.2018C78.161 51.506 78.3815 51.8671 78.532 52.2645C78.6825 52.6619 78.76 53.0878 78.76 53.5179C78.76 53.9479 78.6825 54.3737 78.532 54.7709C78.3815 55.1681 78.1608 55.529 77.8827 55.833C77.6046 56.1369 77.2744 56.3779 76.9111 56.5421C76.5478 56.7064 76.1585 56.7908 75.7653 56.7904H28.2667Z" fill="white" stroke="white" stroke-width="5.28" stroke-linecap="round" stroke-linejoin="round"/>
<path d="M28.2667 56.7904H19.7813C18.9896 56.7873 18.2314 56.4412 17.6726 55.8278C17.1137 55.2144 16.8 54.3838 16.8 53.5179C16.8 52.6492 17.1155 51.8161 17.6771 51.2018C18.2387 50.5876 19.0004 50.2425 19.7947 50.2425H75.7653C76.1586 50.2425 76.548 50.3272 76.9113 50.4918C77.2747 50.6564 77.6048 50.8977 77.8829 51.2018C78.161 51.506 78.3815 51.8671 78.532 52.2645C78.6825 52.6619 78.76 53.0878 78.76 53.5179C78.76 53.9479 78.6825 54.3737 78.532 54.7709C78.3815 55.1681 78.1608 55.529 77.8827 55.833C77.6046 56.1369 77.2744 56.3779 76.9111 56.5421C76.5478 56.7064 76.1585 56.7908 75.7653 56.7904H33.0667" stroke="black" stroke-width="5.28" stroke-linecap="round" stroke-linejoin="round"/>
</svg>
